<!-- Generated by IcoMoon.io -->
<svg version="1.1" xmlns="http://www.w3.org/2000/svg" width="1024" height="1024" viewBox="0 0 1024 1024">
<g id="icomoon-ignore">
</g>
<path fill="#3b3c98" d="M323.998 586.987c-23.842 0-44.537 13.112-55.772 32.392-5.576 9.555-9.012 20.562-9.012 32.392 0 35.688 29.056 64.774 64.774 64.774s64.774-29.086 64.774-64.774c0-11.816-3.406-22.837-9.012-32.392-11.243-19.267-31.902-32.392-55.772-32.392z"></path>
<path fill="#3b3c98" d="M777.444 586.987c-23.842 0-44.537 13.112-55.772 32.392-5.576 9.555-9.012 20.562-9.012 32.392 0 35.688 29.056 64.774 64.774 64.774s64.774-29.086 64.774-64.774c0-11.816-3.406-22.837-9.012-32.392-11.243-19.267-31.902-32.392-55.772-32.392z"></path>
<path fill="#3b3c98" d="M971.776 522.202v-32.392l-194.335-55.55-226.723-138.791h-356.28v32.392h194.335v32.392h-356.28v32.392h388.672v32.392h-323.898v32.392h161.949v32.392h-64.774v32.392h-129.551v32.392h161.949v32.392h-32.392v32.392h-97.175v32.392h129.551c0-11.394 2.327-22.214 5.967-32.392 13.413-37.642 48.979-64.774 91.208-64.774 42.262 0 77.795 27.142 91.208 64.774 3.587 10.167 5.967 20.982 5.967 32.392h259.119c0-11.394 2.327-22.214 5.967-32.392 13.413-37.642 48.979-64.774 91.208-64.774 42.262 0 77.795 27.142 91.208 64.774 3.587 10.167 5.967 20.982 5.967 32.392h97.175v-32.392h32.392v-97.175h-32.392z"></path>
<path fill="#111" d="M1714.87 753.13c-21.367 8.648-41.838 14.367-61.41 17.167s-41.317 4.193-65.225 4.193c-43.238 0-81.118-6.872-113.677-20.597s-59.632-32.933-81.252-57.596-37.887-54.046-48.831-88.112-16.397-71.454-16.397-112.156 5.59-78.332 16.782-112.92 27.597-64.347 49.21-89.266 48.453-44.374 80.483-58.362 68.661-20.982 109.863-20.982c23.906 0 45.517 2.292 64.846 6.872s38.145 10.937 56.46 19.072l-31.273 101.477c-10.167-4.572-21.488-8.648-33.95-12.201s-27.341-5.337-44.638-5.337c-90.533 0-135.807 57.217-135.807 171.655 0 57.482 11.705 99.941 35.087 127.416s59.517 41.202 108.341 41.202c16.277 0 30.642-1.137 43.102-3.436s24.797-5.722 37.009-10.307zM1967.408 591.397c-5.092-1.019-10.422-1.662-16.012-1.907s-10.423-0.379-14.499-0.379c-21.367 0-38.657 3.307-51.887 9.922s-19.829 18.054-19.829 34.33c0 10.167 2.417 18.182 7.25 24.027s10.802 10.167 17.935 12.967 14.616 4.456 22.507 4.952 14.616 0.757 20.212 0.757c10.167 0 21.612-1.277 34.33-3.814v-80.867zM1927.733 507.468c4.076 0 9.537 0.122 16.397 0.38s14.618 0.64 23.265 1.137c-0.507-19.829-7.507-32.672-20.982-38.523s-30.894-8.767-52.267-8.767c-11.705 0-25.182 1.397-40.442 4.193s-31.797 6.989-49.588 12.582l-12.201-41.959c-1.522-5.59-3.692-13.737-6.492-24.412s-4.707-19.072-5.722-25.182c25.427-8.648 49.472-14.879 72.097-18.694s43.102-5.722 61.41-5.722c53.917 0 95.619 12.841 125.121 38.523s44.257 66.762 44.257 123.216v223.54c-19.829 5.59-42.717 11.065-68.661 16.397s-53.917 8.008-83.918 8.008c-26.442 0-50.487-2.292-72.097-6.872s-40.181-12.201-55.702-22.887-27.458-24.663-35.857-41.959-12.582-38.409-12.582-63.332 5.212-45.774 15.636-62.562 23.907-30.137 40.442-40.057 35.087-16.918 55.702-20.982 41.317-6.107 62.177-6.107zM2293.943 381.582c6.107-4.076 14.616-8.008 25.564-11.822s23.265-5.722 37.009-5.722c11.705 0 21.227 0.507 28.612 1.522s11.065 1.277 11.065 0.756v101.477c-11.705-1.019-23.148-1.277-34.33-0.756-9.668 1.019-19.714 2.677-30.139 4.952s-19.967 6.492-28.612 12.582c-10.167 7.122-17.412 16.782-21.751 28.997s-6.492 28.997-6.492 50.347v202.945h-114.434v-302.887h-61.792l48.831-96.896h127.416v29.759c2.537-2.039 4.833-4.077 6.872-6.107 2.039-1.522 4.077-3.174 6.107-4.952s4.077-3.173 6.107-4.192zM2470.948 220.61l125.121-0.001v205.99h162.508v-205.99h125.121v545.499h-125.121v-232.695c-3.057 0.507-5.853 1.020-8.386 1.522l-9.152 1.522h-128.178l-16.782-3.057v232.695h-125.121v-545.499zM2970.673 367.854l115.971-0.003v207.525c0 17.797 1.522 32.672 4.572 44.638s7.629 21.367 13.737 28.227 13.598 11.705 22.508 14.501 19.451 4.193 31.657 4.193c14.752 0 27.982-0.757 39.672-2.292l-1.522-13.737v-283.057h115.971v376.895c-18.812 6.61-41.317 12.463-67.525 17.552s-53.024 7.629-80.483 7.629c-25.944 0-50.732-2.039-74.392-6.107s-44.374-12.722-62.177-25.943-31.913-32.427-42.338-57.596-15.636-59.132-15.636-101.855v-210.575zM3522.285 230.517l-0.001 131.992-3.814 16.015c0-0.507 5.092-2.156 15.258-4.952s24.167-4.193 41.959-4.193c26.442 0 50.867 3.937 73.237 11.822s41.581 19.967 57.596 36.242 28.477 37.009 37.388 62.177 13.352 55.317 13.352 90.412c0 27.458-3.174 53.287-9.537 77.437s-16.917 45.395-31.657 63.71-34.072 32.812-57.977 43.487-53.403 16.015-88.496 16.015h-20.212l-35.857-1.522-46.917-4.572-53.403-9.152v-431.065h-63.332l48.831-93.081zM3558.909 668.454c12.201 0 23.782-1.522 34.712-4.567s20.352-8.386 28.227-16.015 14.238-17.797 19.071-30.516 7.25-28.478 7.25-47.302-2.292-34.972-6.872-48.453-10.686-24.412-18.315-32.812-16.655-14.501-27.080-18.315-21.49-5.722-33.195-5.722c-6.107 0-13.219 0.507-21.367 1.522s-14.501 2.037-19.072 3.056v196.081c5.59 1.019 11.322 1.776 17.167 2.292s12.337 0.757 19.451 0.757z"></path>
</svg>
